<svg xmlns="http://www.w3.org/2000/svg" width="70.031" height="99" viewBox="0 0 70.031 99">
  <metadata><?xpacket begin="﻿" id="W5M0MpCehiHzreSzNTczkc9d"?>
<x:xmpmeta xmlns:x="adobe:ns:meta/" x:xmptk="Adobe XMP Core 5.6-c138 79.159824, 2016/09/14-01:09:01        ">
   <rdf:RDF xmlns:rdf="http://www.w3.org/1999/02/22-rdf-syntax-ns#">
      <rdf:Description rdf:about=""/>
   </rdf:RDF>
</x:xmpmeta>
                                                                                                    
                                                                                                    
                                                                                                    
                                                                                                    
                                                                                                    
                                                                                                    
                                                                                                    
                                                                                                    
                                                                                                    
                                                                                                    
                                                                                                    
                                                                                                    
                                                                                                    
                                                                                                    
                                                                                                    
                                                                                                    
                                                                                                    
                                                                                                    
                                                                                                    
                                                                                                    
                           
<?xpacket end="w"?></metadata>
<defs>
    <style>
      .cls-1 {
        fill: #0169b4;
        fill-rule: evenodd;
      }
    </style>
  </defs>
  <path id="icon" class="cls-1" d="M584.387,818.765a7.807,7.807,0,0,0,0-6.046l-2.643-6.346c0.05-.105.1-0.212,0.143-0.32a6.771,6.771,0,0,0,0-5.239,6.846,6.846,0,0,0-4.052-3.83L570.554,779.5h5.06a1.588,1.588,0,0,0,3.084-.526v-2.107a1.588,1.588,0,0,0-3.084-.526h-6.376l-11.06-26.562,0.461-4.359a4.372,4.372,0,0,0-1.1-3.442,4.422,4.422,0,0,0-3.326-1.446H551.57v-8.952a1.588,1.588,0,0,0-3.176,0v8.952h-2.647a4.421,4.421,0,0,0-3.326,1.446,4.373,4.373,0,0,0-1.1,3.442l0.462,4.359L530.725,776.34h-6.377a1.588,1.588,0,0,0-3.083.526v2.107a1.588,1.588,0,0,0,3.083.526h5.061l-7.28,17.486a6.827,6.827,0,0,0-3.908,9.382l-2.644,6.352a7.883,7.883,0,0,0,2.891,9.571l-1.885,4.524a1.587,1.587,0,0,0,2.935,1.21l7.617-18.294a6.824,6.824,0,0,0,3.683-8.843l8.906-21.388h8.67v2.633a1.588,1.588,0,0,0,3.176,0V779.5h8.67l2.689,6.455a1.587,1.587,0,0,0,2.934-1.209l-3.094-7.43-0.008-.018-5.977-14.356,0.7-6.582,9.229,22.163c0,0.007,0,.014.008,0.022L574.28,796.7a6.9,6.9,0,0,0-2.907,1.275l-3.079-7.394a1.587,1.587,0,0,0-2.934,1.21l3.787,9.094a6.821,6.821,0,0,0,3.683,8.843l5.185,12.453,2.432,5.841a1.587,1.587,0,0,0,2.934-1.209l-1.884-4.524a7.865,7.865,0,0,0,2.89-3.526h0Zm-4.151.5-3.768-9.048a6.909,6.909,0,0,0,2.962-1.142l2.023,4.856a4.712,4.712,0,0,1-1.217,5.334h0Zm-6.125-19.235a3.711,3.711,0,0,1,4.842,2,3.68,3.68,0,0,1-2.006,4.817,3.689,3.689,0,1,1-2.836-6.812h0Zm-55.6,17.528a4.685,4.685,0,0,1,0-3.627l2.022-4.856a7.008,7.008,0,0,0,1.268.685,6.877,6.877,0,0,0,1.695.457l-3.768,9.048a4.706,4.706,0,0,1-1.217-1.707h0Zm9.348-12.712a3.7,3.7,0,1,1-2.006-4.816,3.7,3.7,0,0,1,2.006,4.816h0Zm0.733-6.867a6.9,6.9,0,0,0-2.908-1.275l7.562-18.158,0.009-.023,9.228-22.162,0.7,6.582L537.2,777.3l0,0.012Zm25.625-54.286a1.279,1.279,0,0,1,.966.4,1.261,1.261,0,0,1,.3,1l-0.5,4.754c0,0.011-1.245,11.753-1.245,11.753h-7.5l-1.244-11.742c0-.011-0.505-4.765-0.505-4.765a1.258,1.258,0,0,1,.3-1,1.275,1.275,0,0,1,.965-0.4h8.47ZM551.57,776.34v-2.633a1.588,1.588,0,0,0-3.176,0v2.633h-7.355l4.824-11.585H554.1l4.824,11.585H551.57Zm0,0" transform="translate(-514.969 -730)"/>
</svg>
