<svg xmlns="http://www.w3.org/2000/svg" width="73" height="79" viewBox="0 0 73 79">
  <metadata><?xpacket begin="﻿" id="W5M0MpCehiHzreSzNTczkc9d"?>
<x:xmpmeta xmlns:x="adobe:ns:meta/" x:xmptk="Adobe XMP Core 5.6-c138 79.159824, 2016/09/14-01:09:01        ">
   <rdf:RDF xmlns:rdf="http://www.w3.org/1999/02/22-rdf-syntax-ns#">
      <rdf:Description rdf:about=""/>
   </rdf:RDF>
</x:xmpmeta>
                                                                                                    
                                                                                                    
                                                                                                    
                                                                                                    
                                                                                                    
                                                                                                    
                                                                                                    
                                                                                                    
                                                                                                    
                                                                                                    
                                                                                                    
                                                                                                    
                                                                                                    
                                                                                                    
                                                                                                    
                                                                                                    
                                                                                                    
                                                                                                    
                                                                                                    
                                                                                                    
                           
<?xpacket end="w"?></metadata>
<defs>
    <style>
      .cls-1 {
        fill: #0169b4;
        fill-rule: evenodd;
      }
    </style>
  </defs>
  <path class="cls-1" d="M974.853,797.924l-0.059-.013-12.913-2.6a4.026,4.026,0,0,0-1.762-3.562l-1.928-1.3a25.265,25.265,0,0,0,7.194-18.144,28.506,28.506,0,0,0-.309-4.181h4.458a1.28,1.28,0,0,0,0-2.559h-1.44v-1.451a21.891,21.891,0,0,0-4.9-13.805,21.655,21.655,0,0,0-1.871-2.016V747.74a1.273,1.273,0,0,0-1.27-1.28,1.25,1.25,0,0,0-.675.2,21.543,21.543,0,0,0-7.617-3.642A2.632,2.632,0,0,0,949.21,741h-5.42a2.632,2.632,0,0,0-2.547,2.016,21.535,21.535,0,0,0-7.617,3.642,1.251,1.251,0,0,0-.676-0.2,1.275,1.275,0,0,0-1.271,1.28V748.3a21.759,21.759,0,0,0-6.775,15.821v1.451h-1.438a1.28,1.28,0,0,0,0,2.559h4.458a28.5,28.5,0,0,0-.309,4.181,25.265,25.265,0,0,0,7.194,18.144l-1.929,1.3a4.025,4.025,0,0,0-1.761,3.562l-12.913,2.6-0.06.013A10.8,10.8,0,0,0,910,808.436v7.555A4,4,0,0,0,913.981,820h65.038A4,4,0,0,0,983,815.991v-7.555a10.8,10.8,0,0,0-8.147-10.512h0Zm-46.052.463,3.16-.636,5.105,10.287a1.467,1.467,0,0,0,1.1,1.026,1.27,1.27,0,0,0,1.095-.352c0.437-.434.869-0.834,1.291-1.2a12.042,12.042,0,0,0,11.894,0c0.422,0.369.854,0.768,1.291,1.2a1.264,1.264,0,0,0,.892.369,1.159,1.159,0,0,0,.2-0.017,1.461,1.461,0,0,0,1.1-1.025l5.105-10.287,4.516,0.91V817.44H928.8V798.387ZM926.26,817.44h-2.88V799.479l2.88-.58V817.44ZM946.5,803.7a19.353,19.353,0,0,1,3.717,2.062,9.536,9.536,0,0,1-7.433,0A19.359,19.359,0,0,1,946.5,803.7h0Zm21.6-4.532,2.88,0.58V817.44h-2.88V799.172Zm-8.894-3.44c-2.707,5.458-4.18,8.425-4.946,9.967a25.8,25.8,0,0,0-5.526-3.793l8.773-8.839,1.209,0.811a1.46,1.46,0,0,1,.49,1.854h0Zm6.354-31.613v1.451h-4.235V752.058a19.308,19.308,0,0,1,4.235,12.061h0Zm-13.718,1.451V745.69a19.064,19.064,0,0,1,6.943,3.758V765.57h-6.943Zm-8.046-22.011h5.42a0.085,0.085,0,0,1,.085.085V765.57h-5.59V743.644a0.085,0.085,0,0,1,.085-0.085h0Zm-9.57,22.011V749.448a19.063,19.063,0,0,1,6.944-3.759V765.57H934.22Zm-6.775-1.451a19.313,19.313,0,0,1,4.234-12.061V765.57h-4.234v-1.451Zm35.058,4.01a25.713,25.713,0,0,1,.342,4.181c0,0.03,0,.059,0,0.089-0.028,0-.057,0-0.085,0H958.61v-1.451a1.275,1.275,0,0,0-1.27-1.279h-8.13a1.275,1.275,0,0,0-1.271,1.279V771.3a3.942,3.942,0,0,0-2.878,0v-0.358a1.276,1.276,0,0,0-1.271-1.279h-8.13a1.276,1.276,0,0,0-1.271,1.279V772.4H930.24c-0.029,0-.056,0-0.084,0,0-.03,0-0.059,0-0.089a25.825,25.825,0,0,1,.341-4.181H962.5Zm-32.213,6.825h4.1v0.086a1.271,1.271,0,1,0,2.541,0v-2.816h1.524v1.45a1.271,1.271,0,1,0,2.541,0v-1.45h1.525v2.816a1.271,1.271,0,1,0,2.541,0,1.439,1.439,0,1,1,2.878,0,1.271,1.271,0,1,0,2.541,0v-2.816H952v1.45a1.271,1.271,0,1,0,2.541,0v-1.45h1.525v2.816a1.27,1.27,0,1,0,2.54,0v-0.086h4.1c-1.036,10.093-7.91,17.916-16.211,17.916s-15.174-7.823-16.209-17.916h0ZM946.5,795.429a15.779,15.779,0,0,0,6.437-1.382L946.5,800.53l-6.435-6.483a15.777,15.777,0,0,0,6.435,1.382h0Zm-12.209-1.551,1.209-.811,8.773,8.839a25.774,25.774,0,0,0-5.527,3.793c-0.765-1.542-2.238-4.509-4.945-9.967a1.459,1.459,0,0,1,.49-1.854h0Zm-21.749,22.113v-7.555a8.254,8.254,0,0,1,6.194-8.022l2.105-.424v17.45h-6.859a1.446,1.446,0,0,1-1.44-1.449h0Zm67.918,0a1.446,1.446,0,0,1-1.44,1.449h-5.5V800.263l0.75,0.151a8.253,8.253,0,0,1,6.194,8.022v7.555Zm0,0-40.093-30.376a12.39,12.39,0,0,0,12.268,0,1.284,1.284,0,0,0,.336-1.777,1.264,1.264,0,0,0-1.765-.338,9.97,9.97,0,0,1-9.41,0,1.263,1.263,0,0,0-1.765.338,1.283,1.283,0,0,0,.336,1.777h0Zm0,0" transform="translate(-910 -741)"/>
</svg>
